<?xml version="1.0" encoding="UTF-8"?>
<svg id="Layer_2" data-name="Layer 2" xmlns="http://www.w3.org/2000/svg" viewBox="0 0 1181.32 1460.09">
  <defs>
    <style>
      .cls-1 {
        fill: #fef475;
      }

      .cls-2 {
        fill: #4c9b3c;
      }

      .cls-3 {
        fill: #98d02b;
      }

      .cls-4 {
        fill: #feb901;
      }

      .cls-5 {
        fill: #4e9b3e;
      }
    </style>
  </defs>
  <g id="Layer_1-2" data-name="Layer 1">
    <g>
      <path class="cls-4" d="M810.75,1164.7l-69.54,24.74c-6.54,2.32-13.18,3.34-19.8,5.19-16.35,4.56-32.75,5.53-49.52,8.68-31.39,5.9-62.1,8.5-94.07,8.84-20.04.21-39.31-1.17-59.39-3.61l-34.78-4.23c-21.75-2.65-42.51-7.91-63.49-13.91l-36.86-10.55-45-16.65c-22.44-8.31-43.23-18.25-64.27-29.5l-24.82-13.27c-7.9-4.22-15.17-8.21-22.47-13.78-24.36-18.61-46.67-38.64-68.74-60.02-20.9-20.25-39.43-41.35-54.75-66.11l-30.19-48.82c-16.44-26.58-29.05-54.39-40.21-83.61-21.33-55.85-25.57-67.62-29.57-128.52l-2.4-36.45-.82-16.99c-.43-8.92,1.13-17.56,1.25-26.43.23-16.5,2.66-32.04,4.36-48.64,2.86-27.9,11.42-53.38,19.86-79.91,8.99-28.22,20-54.27,38.44-77.99,16.2-20.85,33.59-40.42,52.7-58.71,8-7.66,15.22-15.56,24.28-21.74,16.18-11.04,33.33-19.42,50.95-27.88,12.56-6.03,25.38-9.93,38.3-14.89,9.09-3.48,18.18-4.13,27.48-6.74,24.4-6.85,48.13-11.87,73.53-14.45,37-3.76,73.59-3.51,110.6,0,47.75,4.54,93.7,23.06,132.97,49.99l28.49,19.55c6.85,4.7,13.02,9.32,19.05,14.96l23.27,21.76c18.78,17.56,33.35,38.12,44.9,61.1,7.02,13.97,24.46,38.79,34.31,51.53,11.18,14.46,35.86,30.37,53.43,33.26,23.35,3.84,46.33.78,69.17-4.63l92.57-21.92,37.49-8.84c26.94-6.35,54.52-8.47,82.02-7.75,26.03.67,49.22,9.85,68.93,26,22.99,18.83,31.83,40.98,41.71,68.33,6.71,18.57,9.66,36.92,10.46,56.64.77,18.89,1.05,37.36.18,56.3-.96,20.8-18.49,74.15-25.98,95.74-7.95,22.93-16.62,44.56-27.95,65.96-13.56,25.61-28.62,49.13-45.25,72.7-7.55,10.7-12.97,21.7-21.2,32.01-14.35,17.98-29.09,34.98-45.7,50.92-12.89,12.36-25.15,23.9-38.71,35.38-11.37,9.62-21.69,19.31-33.78,28.07-15.62,11.32-31.23,21.13-47.53,31.41-15.1,9.52-28.61,20.17-44.46,28.42-13.06,6.8-25.11,13.95-39.47,19.06ZM210.2,868.76c-8.16-16.61-12.23-32.64-12.01-50.79.22-18.38,1.58-35.87,5.44-53.9,4.37-20.41,10-39.49,16.32-59.36,5.92-18.61,13.01-35.9,21.81-53.22,5.31-10.44,12.24-18.64,20.3-26.91,10.33-10.62,22.46-17.79,36.91-21.26,9.59-2.3,18.28-2.94,28.15-.86,13.03,2.75,25.87,7.84,34.51,18.78,8.39,10.64,14.42,24.04,15.84,37.78,1.95,18.89-8.74,53.03-17.41,70.78,7.05,3.38,13.64,5.21,20.64,7.07l32.38,8.6c4.23,1.12,7.73,3.49,12.74,2.63,7.42-16.31,12.89-33.17,16.61-50.99,2.47-11.87,6.78-22.85,7.74-35.12,2.75-35.19-8.35-76.96-30.82-104.93-9.61-11.96-21.5-20.93-34.1-29.56-20.01-13.7-42.39-20.24-66.75-20.66-30.82-.53-61.07,6.36-87.01,23.33-15.23,9.97-26.09,24.03-35.74,39.14-7.75,12.14-13.1,24.47-19.21,37.51-8.35,17.8-16.9,34.66-23.78,53.17-21.07,56.67-30.14,78.31-33.35,140.98-2.14,41.71-.33,66.42,21.57,102.77,9.95,16.51,21.1,30.61,36.67,42.19l21.71,16.16c8.39,6.25,17.19,9.78,27.23,13.06,37.21,12.16,71.99,9.74,104.64-12.64,13.02-8.93,29.99-27.01,35.63-42.02,1.63-4.34-.25-7.98-4.15-9.52l-25.83-10.2c-11.08-4.37-21.27-9.66-32.68-13.25-2.06-.65-4.88.2-5.73,2.17-2.36,5.47-6.7,8.69-11.08,12.17-8.5,6.76-17.99,8.25-28.7,6.09-21.63-4.36-38.64-19.14-48.48-39.18ZM975.51,941.42c10.81-10.85,19.89-22.91,28.12-35.7,6.34-9.84,11.24-20.19,16.19-30.63,6.24-13.18,8.49-26.83,7.71-41.17-1.63-30.23-9.39-49.42-37.77-61.25-2.17-.91-3.36-2.49-3.57-4.23-.19-1.56.45-4.08,2.28-5.23,12.86-8.08,23.19-18.86,30.48-32.45,4.91-9.14,9.17-18.7,11.69-28.88,2.18-8.79-.63-17.62-1.93-26.2s-3.98-15.5-9.49-21.78c-19.7-22.5-19.09-24.73-47.64-34.16-15.96-5.27-31.54-6.54-48.52-4.33-34.48,4.49-67.35,13.75-100.13,25.23-12.99,4.55-25.16,8.52-37.33,14.73-3.59,1.83-6.41,4.46-7.13,8.94-1.77,11.06-2.96,22.2-4.38,33.54l-5.43,43.4c-4.01,32.08-7.45,63.16-10.69,95.35l-9.11,90.55-5.45,51.87-6.26,58.72c-.36,3.4-1.4,14.22.73,15.87,1.88,1.45,3.51.41,5.64.28,20.08-1.26,39.19-4,58.11-10.68,24.03-8.48,46.56-17.9,69.19-29.44,35.69-18.21,76.58-44.17,104.67-72.35ZM577.49,956.71c3.64-17.15,6.11-32.33,8.79-48.98,3.1-19.34,6.49-37.94,10.86-57.13l18.1-79.57,13.22-58.82c1.05-4.69.67-9.32,2.03-14.09,1-3.51-1.16-6.75-4.43-7.54l-41.23-9.89c-6.42-1.54-21.76-5.75-23.19,1.54-.77,3.89-2.49,7.51-3.32,11.41l-8.81,41.49-54.24,261.49-18.7,79.57c22.96,7.22,48.35,14.98,72.63,13.75l28.29-133.23Z"/>
      <path class="cls-2" d="M1081.22,99.22c.6-.07,1.22.11,1.82,0,.46-.08,1.49-.27,1.14-.93,7.93-2.76,15.48-6.59,23.59-10.03,6.94-2.94,13.29-6.2,19.27-10.81,1.77-1.37,4.88-1.65,6.51-.27,1.19,1,3.21,3.19,2.99,5.64-1.31,14.88-12.37,26.46-20.61,37.41-9.1,12.09-18.96,22.86-31.22,31.77-9.49,6.89-17.83,13.83-28.04,19.98-31.53,19-64.6,34.88-100.1,45.56-47.25,14.21-108.67,16.36-157.96,14.3-37.91-1.58-75.11-2.44-112.75-7.08l-50.74-6.26c-24.64-3.04-48.29-7.86-73.07-8.76l-27.06-.98-50.29-.98c-9.74-.19-18.97-.17-28.7.01l-43,.81c-46.65.88-98.24,19.12-139.4,38.84-.84.4-3.59.25-3.58-1.06.13-16.47,4.92-31.57,9.49-46.97,3.9-13.12,16.62-34.44,25.51-44.82,17.84-20.83,34.36-37.33,58.88-50.13l19.63-10.24,28.03-13.11c49.87-23.32,85.97-27.18,139.87-20.81l57.37,6.77c18.76,2.21,36.5,5.56,55.06,9.07l71.88,13.56c28.22,5.32,55.78,8.48,83.87,14.38l55.4,11.63c27.63,5.8,76.04,14.79,103.37,11.85,35.67-3.84,71.32-12.33,102.85-28.3Z"/>
      <path class="cls-3" d="M1081.22,99.22c-31.53,15.97-67.18,24.46-102.85,28.3-27.33,2.94-75.74-6.05-103.37-11.85l-55.4-11.63c-28.09-5.89-55.65-9.05-83.87-14.38l-71.88-13.56c-18.56-3.5-36.3-6.85-55.06-9.07l-57.37-6.77c-53.91-6.36-90.01-2.5-139.87,20.81l-28.03,13.11-19.63,10.24c-24.52,12.8-41.04,29.31-58.88,50.13-8.88,10.37-21.61,31.69-25.51,44.82-4.57,15.4-9.36,30.51-9.49,46.97-.01,1.31,2.75,1.46,3.58,1.06-1.01,4.39-9.46,6.82-12.68,3.75-7.34-18.27-8.74-37.35-8.39-56.89.32-17.64,4.75-33.62,11.43-49.73,6.69-16.14,14.52-30.81,25.18-44.71,7.88-10.27,14.92-20.58,24.84-29.14,17.76-15.33,37.16-27.95,58.12-38.46C409.79,13.36,503.93-3.62,543.33.67l31.29,3.41c52.05,5.67,103.95,7.48,154.84,21.1,16.27,4.35,31.86,6.48,47.52,12.51l65.61,25.28c10.3,3.97,19.82,7.75,30.33,10.84,50.77,14.92,86.99,22.69,140.18,27.57,23.41,2.15,45.54.55,68.11-2.16Z"/>
      <path class="cls-5" d="M473.27,1391.82l-26.47-7.78.97-18.81c1.95-.64,3.5-.55,5.38-.13l46,10.21c1.58,24.52-9.98,48.14-30.07,61.88-14.19,9.71-30.87,11.42-46.66,4.53-17.01-7.42-29.9-22.7-33.29-41.35-4.36-23.97,7.53-61.22,21.86-81.08,17.03-23.6,50.89-27.28,73.49-9.54,12.5,9.81,19.08,24.55,18.35,40.38l-24.03-1.29c.47-8.05-2.27-15.53-8.28-20.62-11.7-9.91-29.75-7.71-39.43,4.26-11.32,14-15.39,30.95-17.45,48.68-1.93,16.58,5.63,33.04,22.74,37.86,10.92,3.08,22.53-1.89,29.36-11.14,3.34-4.52,4.71-9.67,7.53-16.04Z"/>
      <path class="cls-5" d="M89.99,1258.42l50.35-53.68-67.59,20.45c-3.58-2.71-5.22-6.22-8.61-9.79l31.9-70.22c-1.28.62-2.61,1.29-3.92,2.28l-74.8,56.5c-4.59-4.51-8.26-8.15-12.21-13.58l94.88-76.96c1.06-.86,2.2-.99,3.03-1s1.56.93,2.31,1.77l14.49,15.8-28.26,70.78,79.02-26.78c5.19,3.09,9.5,6.38,13.58,10.91l-88.07,98.12-16.08-13.98c3.08-4.3,6.45-6.85,9.99-10.63Z"/>
      <path class="cls-5" d="M337.9,1419.99c-21.84-8.86-18.17-4.95-19.15-14.36l-11.59-112.24-45.64,92.26c-.75,1.52-3.15.54-4.26.43l-16.22-7.93,63.7-123.53,19.31,8.29,11.3,100.87,33.21-85.26,18.36,5.97-49.03,135.52Z"/>
      <path class="cls-5" d="M961.74,1349.48l-55.64-37.28-27.92,15.22,23.99,58.55c-4.59,3.36-9.3,5.64-15.3,7.8l-60.13-132.35,47.44-22.3c10.65-5.01,22.74-5.41,33.53-1.85,12.62,4.26,22.6,13.13,25.76,26.11,3.18,13.06-1.05,25.96-9.47,36.11l60.38,38.51-15.55,11.28c-2.09,1.52-4.53,2.13-7.11.19ZM903.19,1291.36c5.24-2.76,8.16-7.83,9.94-12.94-.42-6.1-1.56-12.4-5.21-17.21-4.73-6.24-12.33-7.89-19.71-5.38-11.59,3.94-22.66,9.07-32.52,16.65l14.9,36.05,32.59-17.18Z"/>
      <path class="cls-5" d="M609.57,1451.46c-15.01,9.69-34.98,11.59-50.95,3.82-11.66-5.67-18.57-17.11-22.34-29.21-8.51-27.29-7.76-56.5.92-83.47,4.93-15.32,19.15-28.1,34.5-30.55,9.34-1.49,18.83-1.71,27.77,1.98,4.23,1.74,7.7,4.78,11.33,7.46,7.25,5.36,11.95,12.24,14.81,21.08,8.92,27.62,9.56,57.99.23,85.6-3.13,9.27-7.65,17.72-16.27,23.28ZM602.25,1428.75c11.84-19.88,11.8-55.79,3.82-76.5-2.14-5.55-4.56-13.01-10.03-15.97-8.19-4.42-19-3.45-27.46-.69-15.68,5.11-25.52,62.04-8.21,92.44,4.06,7.13,12.56,10.12,20.36,9.19,8.47,1.35,16.48-1.72,21.52-8.47Z"/>
      <path class="cls-5" d="M992.05,1256.44l21.12,27.48c.68.89,1.9,1.56,2.61,1.72,1.19.28,2.13-.96,3.25-1.83l45.29-35.09,16.07,16.06c-2.72,2.76-5.59,4.38-8.58,6.77l-57.99,46.33-81.45-109.92,55.73-40.31c4.69,4.63,8.64,8.94,12.67,14.05l-41.11,31.94,20.09,26.78,45.32-33.19c5.45,4.43,9.34,8.82,14.59,14.14l-47.58,35.06Z"/>
      <path class="cls-5" d="M1106.42,1200.11c1.11,1.02,2.31,1.57,3.01,1.55,1.04-.03,1.86-.8,2.77-1.69l38.79-37.93c6.06,4.33,11.43,8.23,17.01,14.35l-52.51,53.79c-1.13,1.16-3.57,3.92-5.57,3.62l-94.35-88.33,50.48-47.05c5.88,2.92,10.45,6.66,14.72,11.19l-35.08,34.84,20.48,18.94,38.14-35.92c5.82,3.31,10.52,7.22,16.27,11.55l-38.13,39.03,23.96,22.05Z"/>
      <path class="cls-5" d="M203.24,1318.73l-37.92-26.93-28.02,22.55c-1.24.99-3.29,1.28-4.66.33-5.19-3.6-10.33-6.8-15.47-11.06l115.15-86.46c5.09,1.29,9.47,4.09,13.72,7.85l-34.39,140.85c-6.97-2.95-11.97-7.45-18.25-11.27l9.83-35.86ZM208.02,1301.05l14.96-55.85-42.94,34.53,27.99,21.32Z"/>
      <path class="cls-5" d="M816.27,1418.48l-23.37,8.53-38.83-119.57-34.52,9.55-6.46-20.63,86.04-25.8c1.79-.54,3.69.87,4.06,2.12,1.83,6.22,4.04,11.59,5.49,18.46l-31.81,9.26,39.4,118.09Z"/>
      <path class="cls-3" d="M1083.03,99.22c-.23-.74.66-.77,1.14-.93.35.66-.67.85-1.14.93Z"/>
      <path class="cls-1" d="M975.51,941.42c-28.09,28.18-68.99,54.14-104.67,72.35-22.63,11.55-45.16,20.96-69.19,29.44-18.92,6.68-38.03,9.42-58.11,10.68-2.12.13-3.76,1.17-5.64-.28-2.13-1.65-1.1-12.47-.73-15.87l6.26-58.72,5.45-51.87,9.11-90.55c3.24-32.19,6.68-63.27,10.69-95.35l5.43-43.4c1.42-11.34,2.61-22.48,4.38-33.54.72-4.49,3.53-7.11,7.13-8.94,12.17-6.21,24.34-10.18,37.33-14.73,32.78-11.49,65.65-20.74,100.13-25.23,16.98-2.21,32.56-.94,48.52,4.33,28.55,9.43,27.95,11.67,47.64,34.16,5.5,6.28,8.23,13.43,9.49,21.78s4.1,17.41,1.93,26.2c-2.52,10.18-6.79,19.74-11.69,28.88-7.29,13.59-17.62,24.37-30.48,32.45-1.83,1.15-2.47,3.67-2.28,5.23.22,1.74,1.4,3.32,3.57,4.23,28.38,11.83,36.14,31.02,37.77,61.25.77,14.34-1.47,27.99-7.71,41.17-4.95,10.44-9.85,20.78-16.19,30.63-8.23,12.79-17.3,24.85-28.12,35.7ZM850.8,783.07l34.36-7.97c15.3-3.55,29.82-7.99,44-14.82,13.61-6.55,24.31-16.36,31.85-29.48,4.45-7.74,8.32-17.32,7.11-26.68-2.12-16.38-15.82-27.38-31.63-30.56-19.25-3.87-38.47-1.27-57.63,2.99l-30.41,6.76c-3.18.71-7.96,2.16-9.54,5.43l-11.12,96.55c7.96.84,15.17-.4,23-2.22ZM828.47,954.26c11.78-2.96,22.83-5.85,34.48-9.65,26.62-8.68,50.7-22.55,71.13-41.66,13.81-12.93,32.36-38.14,27.72-57.55-2.03-8.52-8.92-14.14-16.92-17.25-9.46-3.68-19.37-3.46-29.68-2.44-18.51,1.83-36.46,4.43-54.49,8.69-9.22,2.18-17.25,5.98-26.41,8.65-2.58.75-7.12,3.22-7.72,6.12-2.8,13.31-3.28,26.18-4.75,39.64-2.35,21.5-4.42,42.38-4.99,64.25,3.6,2.25,7.71,2.2,11.63,1.22Z"/>
      <path class="cls-1" d="M210.2,868.76c9.85,20.04,26.86,34.82,48.48,39.18,10.7,2.16,20.19.67,28.7-6.09,4.38-3.48,8.73-6.7,11.08-12.17.85-1.97,3.67-2.81,5.73-2.17,11.41,3.59,21.6,8.88,32.68,13.25l25.83,10.2c3.91,1.54,5.78,5.18,4.15,9.52-5.64,15.01-22.61,33.1-35.63,42.02-32.65,22.38-67.43,24.8-104.64,12.64-10.04-3.28-18.85-6.82-27.23-13.06l-21.71-16.16c-15.56-11.59-26.71-25.68-36.67-42.19-21.91-36.35-23.71-61.07-21.57-102.77,3.21-62.67,12.28-84.31,33.35-140.98,6.88-18.51,15.44-35.37,23.78-53.17,6.12-13.05,11.46-25.37,19.21-37.51,9.65-15.11,20.51-29.17,35.74-39.14,25.94-16.97,56.19-23.86,87.01-23.33,24.36.42,46.73,6.96,66.75,20.66,12.6,8.63,24.49,17.6,34.1,29.56,22.47,27.97,33.58,69.74,30.82,104.93-.96,12.26-5.27,23.25-7.74,35.12-3.71,17.82-9.18,34.69-16.61,50.99-5.02.86-8.51-1.5-12.74-2.63l-32.38-8.6c-7-1.86-13.59-3.69-20.64-7.07,8.67-17.74,19.36-51.88,17.41-70.78-1.42-13.74-7.44-27.14-15.84-37.78-8.63-10.94-21.48-16.03-34.51-18.78-9.87-2.08-18.57-1.44-28.15.86-14.45,3.47-26.58,10.64-36.91,21.26-8.06,8.28-14.99,16.47-20.3,26.91-8.8,17.32-15.89,34.61-21.81,53.22-6.32,19.87-11.95,38.95-16.32,59.36-3.86,18.02-5.22,35.52-5.44,53.9-.22,18.15,3.85,34.18,12.01,50.79Z"/>
      <path class="cls-1" d="M577.49,956.71l-28.29,133.23c-24.28,1.23-49.67-6.54-72.63-13.75l18.7-79.57,54.24-261.49,8.81-41.49c.83-3.9,2.55-7.52,3.32-11.41,1.44-7.29,16.77-3.08,23.19-1.54l41.23,9.89c3.27.78,5.43,4.02,4.43,7.54-1.36,4.78-.98,9.4-2.03,14.09l-13.22,58.82-18.1,79.57c-4.36,19.18-7.75,37.79-10.86,57.13-2.67,16.65-5.15,31.83-8.79,48.98Z"/>
      <path class="cls-4" d="M828.47,954.26c-3.92.98-8.03,1.04-11.63-1.22.57-21.87,2.64-42.75,4.99-64.25,1.47-13.46,1.95-26.33,4.75-39.64.61-2.9,5.14-5.36,7.72-6.12,9.16-2.67,17.19-6.47,26.41-8.65,18.03-4.26,35.98-6.86,54.49-8.69,10.31-1.02,20.22-1.24,29.68,2.44,8,3.11,14.89,8.74,16.92,17.25,4.64,19.41-13.91,44.62-27.72,57.55-20.42,19.12-44.51,32.98-71.13,41.66-11.65,3.8-22.7,6.69-34.48,9.65Z"/>
      <path class="cls-4" d="M850.8,783.07c-7.84,1.82-15.04,3.06-23,2.22l11.12-96.55c1.58-3.26,6.36-4.72,9.54-5.43l30.41-6.76c19.16-4.26,38.38-6.86,57.63-2.99,15.8,3.18,29.51,14.18,31.63,30.56,1.21,9.36-2.66,18.93-7.11,26.68-7.54,13.12-18.24,22.93-31.85,29.48-14.19,6.83-28.71,11.27-44,14.82l-34.36,7.97Z"/>
    </g>
  </g>
</svg>